<svg width="28" height="28" viewBox="0 0 28 28" fill="none" xmlns="http://www.w3.org/2000/svg">
<path d="M24.0625 3.0625H3.9375C3.45352 3.0625 3.0625 3.45352 3.0625 3.9375V24.0625C3.0625 24.5465 3.45352 24.9375 3.9375 24.9375H24.0625C24.5465 24.9375 24.9375 24.5465 24.9375 24.0625V3.9375C24.9375 3.45352 24.5465 3.0625 24.0625 3.0625ZM21 8.68711L19.8844 9.75625C19.7859 9.83008 19.7395 9.95039 19.7586 10.068V17.9348C19.7395 18.0551 19.7859 18.1754 19.8844 18.2465L20.9781 19.3156V19.5535H15.4875V19.3266L16.6168 18.2301C16.7289 18.118 16.7289 18.0852 16.7289 17.9184V11.5527L13.5844 19.5262H13.1605L9.50195 11.5527V16.8984C9.46914 17.1227 9.54844 17.3496 9.70703 17.5109L11.1781 19.291V19.5289H7V19.291L8.47109 17.5109C8.5486 17.4309 8.60628 17.3338 8.63952 17.2274C8.67276 17.1211 8.68063 17.0084 8.6625 16.8984V10.7188C8.68164 10.5465 8.61602 10.3797 8.48477 10.2621L7.17773 8.68711V8.44922H11.2383L14.3719 15.3262L17.1309 8.45469H21V8.68711Z"/>
</svg>
